<svg version="1.1" viewBox="0.0 0.0 931.4251968503937 527.0393700787401" fill="none" stroke="none" stroke-linecap="square" stroke-miterlimit="10" xmlns:xlink="http://www.w3.org/1999/xlink" xmlns="http://www.w3.org/2000/svg"><clipPath id="p.0"><path d="m0 0l931.4252 0l0 527.03937l-931.4252 0l0 -527.03937z" clip-rule="nonzero"/></clipPath><g clip-path="url(#p.0)"><path fill="#000000" fill-opacity="0.0" d="m0 0l931.4252 0l0 527.03937l-931.4252 0z" fill-rule="evenodd"/><path fill="#000000" fill-opacity="0.0" d="m480.5958 430.6719l1.1968689 -362.86615" fill-rule="evenodd"/><path stroke="#000000" stroke-width="2.0" stroke-linejoin="round" stroke-linecap="butt" stroke-dasharray="8.0,6.0" d="m480.5958 430.6719l1.1968689 -362.86615" fill-rule="evenodd"/><path fill="#000000" fill-opacity="0.0" d="m114.2126 67.81365l-0.06299591 364.0315" fill-rule="evenodd"/><path stroke="#000000" stroke-width="2.0" stroke-linejoin="round" stroke-linecap="butt" d="m114.2126 67.81365l-0.06299591 364.0315" fill-rule="evenodd"/><path fill="#000000" fill-opacity="0.0" d="m115.35433 430.6719l726.89764 0" fill-rule="evenodd"/><path stroke="#000000" stroke-width="2.0" stroke-linejoin="round" stroke-linecap="butt" d="m115.35433 430.6719l726.89764 0" fill-rule="evenodd"/><path fill="#000000" fill-opacity="0.0" d="m115.35433 69.002625l726.89764 0" fill-rule="evenodd"/><path stroke="#000000" stroke-width="2.0" stroke-linejoin="round" stroke-linecap="butt" d="m115.35433 69.002625l726.89764 0" fill-rule="evenodd"/><path fill="#000000" fill-opacity="0.0" d="m842.2651 69.002625l1.1968384 361.66928" fill-rule="evenodd"/><path stroke="#000000" stroke-width="2.0" stroke-linejoin="round" stroke-linecap="butt" d="m842.2651 69.002625l1.1968384 361.66928" fill-rule="evenodd"/><path fill="#000000" fill-opacity="0.0" d="m406.82678 69.002625l0.06298828 117.79527" fill-rule="evenodd"/><path stroke="#000000" stroke-width="2.0" stroke-linejoin="round" stroke-linecap="butt" d="m406.82678 69.002625l0.06298828 117.79527" fill-rule="evenodd"/><path fill="#000000" fill-opacity="0.0" d="m406.83203 310.5118l0 118.96063" fill-rule="evenodd"/><path stroke="#000000" stroke-width="2.0" stroke-linejoin="round" stroke-linecap="butt" d="m406.83203 310.5118l0 118.96063" fill-rule="evenodd"/><path fill="#000000" fill-opacity="0.0" d="m114.16535 189.16273l293.85828 0" fill-rule="evenodd"/><path stroke="#000000" stroke-width="2.0" stroke-linejoin="round" stroke-linecap="butt" stroke-dasharray="8.0,6.0" d="m114.16535 189.16273l293.85828 0" fill-rule="evenodd"/><path fill="#000000" fill-opacity="0.0" d="m116.54593 308.13385l291.46457 2.3937073" fill-rule="evenodd"/><path stroke="#000000" stroke-width="2.0" stroke-linejoin="round" stroke-linecap="butt" stroke-dasharray="8.0,6.0" d="m116.54593 308.13385l291.46457 2.3937073" fill-rule="evenodd"/><path fill="#000000" fill-opacity="0.0" d="m481.7848 249.83727l361.66925 -1.1968384" fill-rule="evenodd"/><path stroke="#000000" stroke-width="2.0" stroke-linejoin="round" stroke-linecap="butt" d="m481.7848 249.83727l361.66925 -1.1968384" fill-rule="evenodd"/><path fill="#000000" fill-opacity="0.0" d="m479.4042 162.9895l290.29922 2.3937073" fill-rule="evenodd"/><path stroke="#000000" stroke-width="2.0" stroke-linejoin="round" stroke-linecap="butt" d="m479.4042 162.9895l290.29922 2.3937073" fill-rule="evenodd"/><path fill="#000000" fill-opacity="0.0" d="m480.5958 331.9265l291.46457 1.1968384" fill-rule="evenodd"/><path stroke="#000000" stroke-width="2.0" stroke-linejoin="round" stroke-linecap="butt" d="m480.5958 331.9265l291.46457 1.1968384" fill-rule="evenodd"/><path fill="#000000" fill-opacity="0.0" d="m770.8819 166.55905l0 166.55118" fill-rule="evenodd"/><path stroke="#000000" stroke-width="2.0" stroke-linejoin="round" stroke-linecap="butt" d="m770.8819 166.55905l0 166.55118" fill-rule="evenodd"/><path fill="#000000" fill-opacity="0.0" d="m116.54593 42.829395l364.063 0" fill-rule="evenodd"/><path stroke="#000000" stroke-width="2.0" stroke-linejoin="round" stroke-linecap="butt" d="m116.54593 42.829395l364.063 0" fill-rule="evenodd"/><path fill="#000000" fill-opacity="0.0" d="m91.561676 66.62205l0 366.4252" fill-rule="evenodd"/><path stroke="#000000" stroke-width="2.0" stroke-linejoin="round" stroke-linecap="butt" d="m91.561676 66.62205l0 366.4252" fill-rule="evenodd"/><path fill="#000000" fill-opacity="0.0" d="m481.7848 116.59055l48.787415 46.3937" fill-rule="evenodd"/><path stroke="#000000" stroke-width="2.0" stroke-linejoin="round" stroke-linecap="butt" d="m481.7848 116.59055l48.787415 46.3937" fill-rule="evenodd"/><path fill="#000000" fill-opacity="0.0" d="m481.1942 69.00525l89.19684 93.98425" fill-rule="evenodd"/><path stroke="#000000" stroke-width="2.0" stroke-linejoin="round" stroke-linecap="butt" d="m481.1942 69.00525l89.19684 93.98425" fill-rule="evenodd"/><path fill="#000000" fill-opacity="0.0" d="m534.69946 70.19948l89.29132 95.18111" fill-rule="evenodd"/><path stroke="#000000" stroke-width="2.0" stroke-linejoin="round" stroke-linecap="butt" d="m534.69946 70.19948l89.29132 95.18111" fill-rule="evenodd"/><path fill="#000000" fill-opacity="0.0" d="m579.3412 69.002625l95.18115 96.37796" fill-rule="evenodd"/><path stroke="#000000" stroke-width="2.0" stroke-linejoin="round" stroke-linecap="butt" d="m579.3412 69.002625l95.18115 96.37796" fill-rule="evenodd"/><path fill="#000000" fill-opacity="0.0" d="m628.1181 70.191605l92.787415 95.18109" fill-rule="evenodd"/><path stroke="#000000" stroke-width="2.0" stroke-linejoin="round" stroke-linecap="butt" d="m628.1181 70.191605l92.787415 95.18109" fill-rule="evenodd"/><path fill="#000000" fill-opacity="0.0" d="m676.895 70.191605l165.3858 167.74803" fill-rule="evenodd"/><path stroke="#000000" stroke-width="2.0" stroke-linejoin="round" stroke-linecap="butt" d="m676.895 70.191605l165.3858 167.74803" fill-rule="evenodd"/><path fill="#000000" fill-opacity="0.0" d="m724.48553 70.191605l116.59845 118.96063" fill-rule="evenodd"/><path stroke="#000000" stroke-width="2.0" stroke-linejoin="round" stroke-linecap="butt" d="m724.48553 70.191605l116.59845 118.96063" fill-rule="evenodd"/><path fill="#000000" fill-opacity="0.0" d="m773.26245 70.191605l69.00787 67.81102" fill-rule="evenodd"/><path stroke="#000000" stroke-width="2.0" stroke-linejoin="round" stroke-linecap="butt" d="m773.26245 70.191605l69.00787 67.81102" fill-rule="evenodd"/><path fill="#000000" fill-opacity="0.0" d="m822.03937 70.191605l20.220459 22.614166" fill-rule="evenodd"/><path stroke="#000000" stroke-width="2.0" stroke-linejoin="round" stroke-linecap="butt" d="m822.03937 70.191605l20.220459 22.614166" fill-rule="evenodd"/><path fill="#000000" fill-opacity="0.0" d="m770.8819 211.7664l71.370056 72.56694" fill-rule="evenodd"/><path stroke="#000000" stroke-width="2.0" stroke-linejoin="round" stroke-linecap="butt" d="m770.8819 211.7664l71.370056 72.56694" fill-rule="evenodd"/><path fill="#000000" fill-opacity="0.0" d="m770.8819 262.9239l71.370056 71.37009" fill-rule="evenodd"/><path stroke="#000000" stroke-width="2.0" stroke-linejoin="round" stroke-linecap="butt" d="m770.8819 262.9239l71.370056 71.37009" fill-rule="evenodd"/><path fill="#000000" fill-opacity="0.0" d="m772.0735 311.7034l70.20471 72.566956" fill-rule="evenodd"/><path stroke="#000000" stroke-width="2.0" stroke-linejoin="round" stroke-linecap="butt" d="m772.0735 311.7034l70.20471 72.566956" fill-rule="evenodd"/><path fill="#000000" fill-opacity="0.0" d="m745.8845 333.09448l96.37793 95.18112" fill-rule="evenodd"/><path stroke="#000000" stroke-width="2.0" stroke-linejoin="round" stroke-linecap="butt" d="m745.8845 333.09448l96.37793 95.18112" fill-rule="evenodd"/><path fill="#000000" fill-opacity="0.0" d="m698.90027 333.09448l93.98425 96.37796" fill-rule="evenodd"/><path stroke="#000000" stroke-width="2.0" stroke-linejoin="round" stroke-linecap="butt" d="m698.90027 333.09448l93.98425 96.37796" fill-rule="evenodd"/><path fill="#000000" fill-opacity="0.0" d="m648.937 333.09448l96.37793 96.37796" fill-rule="evenodd"/><path stroke="#000000" stroke-width="2.0" stroke-linejoin="round" stroke-linecap="butt" d="m648.937 333.09448l96.37793 96.37796" fill-rule="evenodd"/><path fill="#000000" fill-opacity="0.0" d="m601.9449 333.09448l93.98425 96.37796" fill-rule="evenodd"/><path stroke="#000000" stroke-width="2.0" stroke-linejoin="round" stroke-linecap="butt" d="m601.9449 333.09448l93.98425 96.37796" fill-rule="evenodd"/><path fill="#000000" fill-opacity="0.0" d="m552.27954 333.09448l97.543274 97.543304" fill-rule="evenodd"/><path stroke="#000000" stroke-width="2.0" stroke-linejoin="round" stroke-linecap="butt" d="m552.27954 333.09448l97.543274 97.543304" fill-rule="evenodd"/><path fill="#000000" fill-opacity="0.0" d="m504.67715 333.09448l96.37796 98.74017" fill-rule="evenodd"/><path stroke="#000000" stroke-width="2.0" stroke-linejoin="round" stroke-linecap="butt" d="m504.67715 333.09448l96.37796 98.74017" fill-rule="evenodd"/><path fill="#000000" fill-opacity="0.0" d="m481.7848 359.8819l70.20471 70.20471" fill-rule="evenodd"/><path stroke="#000000" stroke-width="2.0" stroke-linejoin="round" stroke-linecap="butt" d="m481.7848 359.8819l70.20471 70.20471" fill-rule="evenodd"/><path fill="#000000" fill-opacity="0.0" d="m482.3701 408.05774l21.417328 22.614166" fill-rule="evenodd"/><path stroke="#000000" stroke-width="2.0" stroke-linejoin="round" stroke-linecap="butt" d="m482.3701 408.05774l21.417328 22.614166" fill-rule="evenodd"/><path fill="#000000" fill-opacity="0.0" d="m868.4383 248.04987l0 83.275604" fill-rule="evenodd"/><path stroke="#000000" stroke-width="2.0" stroke-linejoin="round" stroke-linecap="butt" d="m868.4383 248.04987l0 83.275604" fill-rule="evenodd"/><path fill="#000000" fill-opacity="0.0" d="m480.5958 456.84515l290.29922 0" fill-rule="evenodd"/><path stroke="#000000" stroke-width="2.0" stroke-linejoin="round" stroke-linecap="butt" d="m480.5958 456.84515l290.29922 0" fill-rule="evenodd"/><path fill="#000000" fill-opacity="0.0" d="m406.85828 35.097115l0 15.464565" fill-rule="evenodd"/><path stroke="#000000" stroke-width="2.0" stroke-linejoin="round" stroke-linecap="butt" d="m406.85828 35.097115l0 15.464565" fill-rule="evenodd"/><path fill="#000000" fill-opacity="0.0" d="m481.1942 35.097115l0 15.464565" fill-rule="evenodd"/><path stroke="#000000" stroke-width="2.0" stroke-linejoin="round" stroke-linecap="butt" d="m481.1942 35.097115l0 15.464565" fill-rule="evenodd"/><path fill="#000000" fill-opacity="0.0" d="m116.54593 35.097115l0 15.464565" fill-rule="evenodd"/><path stroke="#000000" stroke-width="2.0" stroke-linejoin="round" stroke-linecap="butt" d="m116.54593 35.097115l0 15.464565" fill-rule="evenodd"/><path fill="#000000" fill-opacity="0.0" d="m82.049866 66.62205l19.023628 0" fill-rule="evenodd"/><path stroke="#000000" stroke-width="2.0" stroke-linejoin="round" stroke-linecap="butt" d="m82.049866 66.62205l19.023628 0" fill-rule="evenodd"/><path fill="#000000" fill-opacity="0.0" d="m82.049866 189.16273l19.023628 0" fill-rule="evenodd"/><path stroke="#000000" stroke-width="2.0" stroke-linejoin="round" stroke-linecap="butt" d="m82.049866 189.16273l19.023628 0" fill-rule="evenodd"/><path fill="#000000" fill-opacity="0.0" d="m82.049866 309.33072l19.023628 0" fill-rule="evenodd"/><path stroke="#000000" stroke-width="2.0" stroke-linejoin="round" stroke-linecap="butt" d="m82.049866 309.33072l19.023628 0" fill-rule="evenodd"/><path fill="#000000" fill-opacity="0.0" d="m82.049866 433.04724l19.023628 0" fill-rule="evenodd"/><path stroke="#000000" stroke-width="2.0" stroke-linejoin="round" stroke-linecap="butt" d="m82.049866 433.04724l19.023628 0" fill-rule="evenodd"/><path fill="#000000" fill-opacity="0.0" d="m858.9265 248.04987l19.02362 0" fill-rule="evenodd"/><path stroke="#000000" stroke-width="2.0" stroke-linejoin="round" stroke-linecap="butt" d="m858.9265 248.04987l19.02362 0" fill-rule="evenodd"/><path fill="#000000" fill-opacity="0.0" d="m858.9265 332.52493l19.02362 0" fill-rule="evenodd"/><path stroke="#000000" stroke-width="2.0" stroke-linejoin="round" stroke-linecap="butt" d="m858.9265 332.52493l19.02362 0" fill-rule="evenodd"/><path fill="#000000" fill-opacity="0.0" d="m480.0 449.11285l0 15.464569" fill-rule="evenodd"/><path stroke="#000000" stroke-width="2.0" stroke-linejoin="round" stroke-linecap="butt" d="m480.0 449.11285l0 15.464569" fill-rule="evenodd"/><path fill="#000000" fill-opacity="0.0" d="m770.8819 449.11285l0 15.464569" fill-rule="evenodd"/><path stroke="#000000" stroke-width="2.0" stroke-linejoin="round" stroke-linecap="butt" d="m770.8819 449.11285l0 15.464569" fill-rule="evenodd"/><path fill="#000000" fill-opacity="0.0" d="m586.21277 186.00262l89.29132 0l0 42.015747l-89.29132 0z" fill-rule="evenodd"/><path fill="#000000" d="m608.619 212.92262l-2.9375 0l-1.171875 -3.03125l-5.328125 0l-1.109375 3.03125l-2.859375 0l5.203125 -13.359375l2.84375 0l5.359375 13.359375zm-4.96875 -5.28125l-1.84375 -4.953125l-1.796875 4.953125l3.640625 0zm5.4729004 2.515625l2.5625 -0.390625q0.171875 0.75 0.671875 1.140625q0.5 0.390625 1.40625 0.390625q0.984375 0 1.484375 -0.375q0.34375 -0.25 0.34375 -0.671875q0 -0.296875 -0.1875 -0.484375q-0.1875 -0.1875 -0.859375 -0.34375q-3.09375 -0.6875 -3.921875 -1.25q-1.140625 -0.78125 -1.140625 -2.171875q0 -1.265625 0.984375 -2.109375q1.0 -0.859375 3.078125 -0.859375q1.984375 0 2.953125 0.65625q0.96875 0.640625 1.328125 1.90625l-2.40625 0.4375q-0.15625 -0.5625 -0.59375 -0.859375q-0.421875 -0.296875 -1.234375 -0.296875q-1.0 0 -1.4375 0.28125q-0.296875 0.203125 -0.296875 0.515625q0 0.265625 0.25 0.46875q0.34375 0.25 2.390625 0.71875q2.046875 0.453125 2.859375 1.140625q0.796875 0.671875 0.796875 1.890625q0 1.34375 -1.109375 2.296875q-1.109375 0.953125 -3.28125 0.953125q-1.984375 0 -3.140625 -0.796875q-1.140625 -0.8125 -1.5 -2.1875zm11.203857 -6.90625l2.390625 0l0 1.421875q0.46875 -0.734375 1.25 -1.1875q0.796875 -0.453125 1.765625 -0.453125q1.6875 0 2.859375 1.328125q1.171875 1.3125 1.171875 3.671875q0 2.421875 -1.1875 3.765625q-1.1875 1.34375 -2.859375 1.34375q-0.8125 0 -1.46875 -0.3125q-0.640625 -0.328125 -1.359375 -1.09375l0 4.875l-2.5625 0l0 -13.359375zm2.53125 4.671875q0 1.625 0.640625 2.40625q0.65625 0.78125 1.578125 0.78125q0.90625 0 1.484375 -0.71875q0.59375 -0.71875 0.59375 -2.34375q0 -1.515625 -0.609375 -2.25q-0.609375 -0.75 -1.515625 -0.75q-0.9375 0 -1.5625 0.734375q-0.609375 0.71875 -0.609375 2.140625zm10.849121 -1.71875l-2.328125 -0.421875q0.40625 -1.40625 1.359375 -2.078125q0.953125 -0.671875 2.84375 -0.671875q1.703125 0 2.546875 0.40625q0.84375 0.40625 1.171875 1.03125q0.34375 0.625 0.34375 2.28125l-0.015625 3.0q0 1.265625 0.109375 1.875q0.125 0.609375 0.46875 1.296875l-2.53125 0q-0.109375 -0.25 -0.25 -0.75q-0.0625 -0.234375 -0.09375 -0.3125q-0.65625 0.640625 -1.40625 0.96875q-0.734375 0.3125 -1.59375 0.3125q-1.484375 0 -2.34375 -0.8125q-0.859375 -0.8125 -0.859375 -2.046875q0 -0.828125 0.390625 -1.46875q0.390625 -0.640625 1.09375 -0.96875q0.703125 -0.34375 2.03125 -0.609375q1.796875 -0.328125 2.484375 -0.625l0 -0.25q0 -0.75 -0.359375 -1.0625q-0.359375 -0.3125 -1.375 -0.3125q-0.6875 0 -1.078125 0.28125q-0.375 0.265625 -0.609375 0.9375zm3.421875 2.078125q-0.484375 0.15625 -1.5625 0.390625q-1.0625 0.21875 -1.390625 0.4375q-0.5 0.359375 -0.5 0.90625q0 0.53125 0.40625 0.9375q0.40625 0.390625 1.015625 0.390625q0.703125 0 1.328125 -0.46875q0.46875 -0.34375 0.609375 -0.84375q0.09375 -0.328125 0.09375 -1.25l0 -0.5zm16.230896 4.640625l-2.5625 0l0 -9.640625q-1.40625 1.3125 -3.3125 1.9375l0 -2.328125q1.015625 -0.328125 2.1875 -1.234375q1.171875 -0.921875 1.609375 -2.140625l2.078125 0l0 13.40625z" fill-rule="nonzero"/><path fill="#000000" fill-opacity="0.0" d="m586.20984 269.87402l89.29132 0l0 42.015747l-89.29132 0z" fill-rule="evenodd"/><path fill="#000000" d="m608.6161 296.794l-2.9375 0l-1.171875 -3.03125l-5.328125 0l-1.109375 3.03125l-2.859375 0l5.203125 -13.359375l2.84375 0l5.359375 13.359375zm-4.96875 -5.28125l-1.84375 -4.953125l-1.796875 4.953125l3.640625 0zm5.4729004 2.515625l2.5625 -0.390625q0.171875 0.75 0.671875 1.140625q0.5 0.390625 1.40625 0.390625q0.984375 0 1.484375 -0.375q0.34375 -0.25 0.34375 -0.671875q0 -0.296875 -0.1875 -0.484375q-0.1875 -0.1875 -0.859375 -0.34375q-3.09375 -0.6875 -3.921875 -1.25q-1.140625 -0.78125 -1.140625 -2.171875q0 -1.265625 0.984375 -2.109375q1.0 -0.859375 3.078125 -0.859375q1.984375 0 2.953125 0.65625q0.96875 0.640625 1.328125 1.90625l-2.40625 0.4375q-0.15625 -0.5625 -0.59375 -0.859375q-0.421875 -0.296875 -1.234375 -0.296875q-1.0 0 -1.4375 0.28125q-0.296875 0.203125 -0.296875 0.515625q0 0.265625 0.25 0.46875q0.34375 0.25 2.390625 0.71875q2.046875 0.453125 2.859375 1.140625q0.796875 0.671875 0.796875 1.890625q0 1.34375 -1.109375 2.296875q-1.109375 0.953125 -3.28125 0.953125q-1.984375 0 -3.140625 -0.796875q-1.140625 -0.8125 -1.5 -2.1875zm11.203857 -6.90625l2.390625 0l0 1.421875q0.46875 -0.734375 1.25 -1.1875q0.796875 -0.453125 1.765625 -0.453125q1.6875 0 2.859375 1.328125q1.171875 1.3125 1.171875 3.671875q0 2.421875 -1.1875 3.765625q-1.1875 1.34375 -2.859375 1.34375q-0.8125 0 -1.46875 -0.3125q-0.640625 -0.328125 -1.359375 -1.09375l0 4.875l-2.5625 0l0 -13.359375zm2.53125 4.671875q0 1.625 0.640625 2.40625q0.65625 0.78125 1.578125 0.78125q0.90625 0 1.484375 -0.71875q0.59375 -0.71875 0.59375 -2.34375q0 -1.515625 -0.609375 -2.25q-0.609375 -0.75 -1.515625 -0.75q-0.9375 0 -1.5625 0.734375q-0.609375 0.71875 -0.609375 2.140625zm10.849121 -1.71875l-2.328125 -0.421875q0.40625 -1.40625 1.359375 -2.078125q0.953125 -0.671875 2.84375 -0.671875q1.703125 0 2.546875 0.40625q0.84375 0.40625 1.171875 1.03125q0.34375 0.625 0.34375 2.28125l-0.015625 3.0q0 1.265625 0.109375 1.875q0.125 0.609375 0.46875 1.296875l-2.53125 0q-0.109375 -0.25 -0.25 -0.75q-0.0625 -0.234375 -0.09375 -0.3125q-0.65625 0.640625 -1.40625 0.96875q-0.734375 0.3125 -1.59375 0.3125q-1.484375 0 -2.34375 -0.8125q-0.859375 -0.8125 -0.859375 -2.046875q0 -0.828125 0.390625 -1.46875q0.390625 -0.640625 1.09375 -0.96875q0.703125 -0.34375 2.03125 -0.609375q1.796875 -0.328125 2.484375 -0.625l0 -0.25q0 -0.75 -0.359375 -1.0625q-0.359375 -0.3125 -1.375 -0.3125q-0.6875 0 -1.078125 0.28125q-0.375 0.265625 -0.609375 0.9375zm3.421875 2.078125q-0.484375 0.15625 -1.5625 0.390625q-1.0625 0.21875 -1.390625 0.4375q-0.5 0.359375 -0.5 0.90625q0 0.53125 0.40625 0.9375q0.40625 0.390625 1.015625 0.390625q0.703125 0 1.328125 -0.46875q0.46875 -0.34375 0.609375 -0.84375q0.09375 -0.328125 0.09375 -1.25l0 -0.5zm18.324646 2.265625l0 2.375l-8.96875 0q0.140625 -1.34375 0.859375 -2.546875q0.734375 -1.21875 2.890625 -3.203125q1.734375 -1.625 2.125 -2.1875q0.53125 -0.796875 0.53125 -1.578125q0 -0.84375 -0.46875 -1.296875q-0.453125 -0.46875 -1.265625 -0.46875q-0.796875 0 -1.28125 0.484375q-0.46875 0.46875 -0.546875 1.59375l-2.546875 -0.25q0.234375 -2.109375 1.421875 -3.03125q1.203125 -0.921875 3.015625 -0.921875q1.96875 0 3.09375 1.0625q1.140625 1.0625 1.140625 2.65625q0 0.890625 -0.328125 1.71875q-0.3125 0.8125 -1.015625 1.703125q-0.46875 0.59375 -1.6875 1.703125q-1.203125 1.109375 -1.53125 1.484375q-0.3125 0.359375 -0.515625 0.703125l5.078125 0z" fill-rule="nonzero"/><path fill="#000000" fill-opacity="0.0" d="m919.96674 229.03952l0.03149414 140.94489l-42.015747 0l-0.03149414 -140.94489z" fill-rule="evenodd"/><path fill="#000000" d="m893.05176 251.44577l-6.713867E-4 -2.9375l3.0310059 -1.171875l-0.0012207031 -5.328125l-3.0314941 -1.109375l-6.1035156E-4 -2.859375l13.360535 5.203125l6.1035156E-4 2.84375l-13.358154 5.359375zm5.2800903 -4.96875l4.952759 -1.84375l-4.9535522 -1.796875l7.9345703E-4 3.640625zm-5.277832 15.176056l-5.493164E-4 -2.5625l4.9375 0q1.5625 0 2.015564 -0.171875q0.46868896 -0.15625 0.7186279 -0.53125q0.26556396 -0.359375 0.2654419 -0.875q-1.8310547E-4 -0.671875 -0.37530518 -1.203125q-0.35943604 -0.53123474 -0.9688721 -0.73435974q-0.59381104 -0.1875 -2.218811 -0.1875l-4.375 0l-5.493164E-4 -2.546875l9.671875 0l4.8828125E-4 2.375l-1.421875 0q1.6409302 1.2656097 1.6413574 3.1874847q1.8310547E-4 0.84375 -0.3121338 1.546875q-0.29675293 0.703125 -0.78100586 1.0625q-0.46868896 0.359375 -1.0780029 0.5q-0.59375 0.140625 -1.703125 0.140625l-6.015625 0zm6.8149414 11.036621l-0.45367432 -2.53125q0.75 -0.125 1.1248779 -0.578125q0.39050293 -0.453125 0.39038086 -1.171875q-2.4414062E-4 -0.953125 -0.6566162 -1.53125q-0.6563721 -0.5625 -2.203247 -0.5625q-1.734375 0 -2.437378 0.578125q-0.7030029 0.578125 -0.7027588 1.546875q1.8310547E-4 0.734375 0.40649414 1.203125q0.42199707 0.46875 1.4220581 0.65625l-0.42132568 2.515625q-1.7344971 -0.390625 -2.6253662 -1.515625q-0.87524414 -1.109375 -0.8756714 -2.96875q-4.272461E-4 -2.125 1.3273926 -3.390625q1.3434448 -1.25 3.7184448 -1.25q2.390625 0 3.7190552 1.265625q1.3440552 1.265625 1.3445435 3.421875q3.6621094E-4 1.765625 -0.76501465 2.796875q-0.74975586 1.046875 -2.3121948 1.515625zm6.5479126 4.485077l-4.921875 0q1.4533691 1.234375 1.4537964 2.953125q1.8310547E-4 0.890625 -0.3277588 1.59375q-0.32800293 0.71875 -0.8435669 1.078125q-0.49987793 0.359375 -1.1248779 0.484375q-0.60931396 0.140625 -1.921814 0.140625l-5.671875 0l-6.1035156E-4 -2.5625l5.109375 0q1.515625 0 1.921875 -0.15625q0.42181396 -0.140625 0.6561279 -0.515625q0.24993896 -0.359375 0.2498169 -0.90625q-1.8310547E-4 -0.640625 -0.31280518 -1.140625q-0.31256104 -0.5 -0.9376221 -0.734375q-0.62506104 -0.234375 -1.843811 -0.234375l-4.84375 0l-6.1035156E-4 -2.5625l13.359375 0l6.1035156E-4 2.5625zm-8.388794 8.255371q1.28125 0 2.468872 0.625q1.2033081 0.625 1.8285522 1.78125q0.62524414 1.15625 0.6255493 2.578125q4.8828125E-4 2.1875 -1.4210205 3.59375q-1.4215698 1.40625 -3.6090698 1.40625q-2.1875 0 -3.6409912 -1.421875q-1.4378052 -1.421875 -1.4382935 -3.5625q-2.4414062E-4 -1.328125 0.5932007 -2.546875q0.60913086 -1.203125 1.7651978 -1.828125q1.1717529 -0.625 2.828003 -0.625zm-0.12438965 2.625q-1.453125 0 -2.218628 0.671875q-0.7498169 0.6875 -0.7496338 1.6875q2.4414062E-4 1.0 0.7503662 1.671875q0.7658081 0.6875 2.234558 0.6875q1.421875 0 2.187317 -0.6875q0.7655029 -0.671875 0.7652588 -1.671875q-1.8310547E-4 -1.0 -0.7659912 -1.6875q-0.7657471 -0.671875 -2.203247 -0.671875zm1.8786621 16.454285l0.42132568 -2.328125q1.4063721 0.40625 2.0784302 1.359375q0.67211914 0.953125 0.6725464 2.84375q3.6621094E-4 1.703125 -0.40570068 2.546875q-0.4060669 0.84375 -1.0310059 1.171875q-0.6248779 0.34375 -2.281128 0.34375l-3.0 -0.015625q-1.265625 0 -1.875 0.109375q-0.609375 0.125 -1.2967529 0.46875l-6.1035156E-4 -2.53125q0.25 -0.109375 0.75 -0.25q0.23431396 -0.0625 0.31243896 -0.09375q-0.6407471 -0.65625 -0.9690552 -1.40625q-0.3126831 -0.734375 -0.3128662 -1.59375q-3.0517578E-4 -1.484375 0.8120117 -2.34375q0.8123169 -0.859375 2.046692 -0.859375q0.828125 0 1.468811 0.390625q0.64068604 0.390625 0.96899414 1.09375q0.3439331 0.703125 0.60980225 2.03125q0.32855225 1.796875 0.6255493 2.484375l0.25 0q0.75 0 1.062439 -0.359375q0.31243896 -0.359375 0.31219482 -1.375q-1.2207031E-4 -0.6875 -0.28149414 -1.078125q-0.26568604 -0.375 -0.9376221 -0.609375zm-2.0773926 3.421875q-0.15631104 -0.484375 -0.39093018 -1.5625q-0.21899414 -1.0625 -0.43780518 -1.390625q-0.35949707 -0.5 -0.9063721 -0.5q-0.53125 0 -0.93743896 0.40625q-0.39050293 0.40625 -0.39038086 1.015625q1.8310547E-4 0.703125 0.46905518 1.328125q0.34387207 0.46875 0.8438721 0.609375q0.328125 0.09375 1.25 0.09375l0.5 0zm-1.8740234 4.141327l0.39117432 2.5625q-0.74993896 0.171875 -1.1405029 0.671875q-0.39050293 0.5 -0.3902588 1.40625q1.8310547E-4 0.984375 0.37530518 1.484375q0.25006104 0.34375 0.67193604 0.34375q0.296875 0 0.484375 -0.1875q0.18743896 -0.1875 0.34350586 -0.859375q0.6868286 -3.09375 1.2491455 -3.921875q0.78100586 -1.140625 2.1716309 -1.140625q1.265625 0 2.1096191 0.984375q0.8595581 1.0 0.8600464 3.078125q4.272461E-4 1.984375 -0.6555786 2.953125q-0.6404419 0.96875 -1.9059448 1.328125l-0.43804932 -2.40625q0.56243896 -0.15625 0.8592529 -0.59375q0.29675293 -0.421875 0.29656982 -1.234375q-2.4414062E-4 -1.0 -0.28155518 -1.4375q-0.20318604 -0.296875 -0.51568604 -0.296875q-0.265625 0 -0.46868896 0.25q-0.24993896 0.34375 -0.7182617 2.390625q-0.45263672 2.046875 -1.1399536 2.859375q-0.6716919 0.796875 -1.8904419 0.796875q-1.34375 0 -2.2971191 -1.109375q-0.95336914 -1.109375 -0.9538574 -3.28125q-4.8828125E-4 -1.984375 0.7961426 -3.140625q0.81225586 -1.140625 2.1871948 -1.5zm6.9087524 11.203857l4.8828125E-4 2.390625l-1.421875 0q0.7344971 0.46875 1.1878052 1.25q0.4533081 0.796875 0.4534912 1.765625q4.272461E-4 1.6875 -1.3274536 2.859375q-1.3122559 1.171875 -3.6716309 1.171875q-2.421875 0 -3.7658691 -1.1875q-1.3439941 -1.1875 -1.3444214 -2.859375q-1.8310547E-4 -0.8125 0.31219482 -1.46875q0.32800293 -0.640625 1.0934448 -1.359375l-4.875 0l-5.493164E-4 -2.5625l13.359375 0zm-4.6713257 2.53125q-1.625 0 -2.406128 0.640625q-0.7810669 0.65625 -0.7808838 1.578125q1.8310547E-4 0.90625 0.7190552 1.484375q0.7189331 0.59375 2.343933 0.59375q1.515625 0 2.249817 -0.609375q0.7498779 -0.609375 0.7496948 -1.515625q-2.4414062E-4 -0.9375 -0.7347412 -1.5625q-0.7188721 -0.609375 -2.140747 -0.609375zm1.7211914 10.849091l0.42132568 -2.328125q1.4063721 0.40625 2.0784302 1.359375q0.67211914 0.953125 0.6725464 2.84375q3.6621094E-4 1.703125 -0.40570068 2.546875q-0.4060669 0.84375 -1.0310059 1.171875q-0.62493896 0.34375 -2.281189 0.34375l-3.0 -0.015625q-1.265625 0 -1.874939 0.109375q-0.609375 0.125 -1.296814 0.46875l-5.493164E-4 -2.53125q0.25 -0.109375 0.74993896 -0.25q0.234375 -0.0625 0.3125 -0.09375q-0.6407471 -0.65625 -0.9690552 -1.40625q-0.3126831 -0.734375 -0.3128662 -1.59375q-3.6621094E-4 -1.484375 0.8119507 -2.34375q0.8123169 -0.859375 2.046692 -0.859375q0.828125 0 1.4688721 0.390625q0.64068604 0.390625 0.96899414 1.09375q0.34387207 0.703125 0.60980225 2.03125q0.32855225 1.796875 0.6255493 2.484375l0.25 0q0.75 0 1.062439 -0.359375q0.31243896 -0.359375 0.31219482 -1.375q-1.8310547E-4 -0.6875 -0.28149414 -1.078125q-0.26568604 -0.375 -0.9376221 -0.609375zm-2.0773926 3.421875q-0.15637207 -0.484375 -0.3909912 -1.5625q-0.2189331 -1.0625 -0.43780518 -1.390625q-0.35943604 -0.5 -0.90631104 -0.5q-0.53125 0 -0.93743896 0.40625q-0.39050293 0.40625 -0.39038086 1.015625q1.2207031E-4 0.703125 0.46905518 1.328125q0.34381104 0.46875 0.8438721 0.609375q0.328125 0.09375 1.25 0.09375l0.5 0z" fill-rule="nonzero"/><path fill="#000000" fill-opacity="0.0" d="m568.63257 464.57742l130.2677 0l0 42.015747l-130.2677 0z" fill-rule="evenodd"/><path fill="#000000" d="m579.07007 491.49744l0 -13.25l2.6875 0l0 11.0l6.703125 0l0 2.25l-9.390625 0zm13.208435 -6.71875l-2.328125 -0.421875q0.40625 -1.40625 1.359375 -2.078125q0.953125 -0.671875 2.84375 -0.671875q1.703125 0 2.546875 0.40625q0.84375 0.40625 1.171875 1.03125q0.34375 0.625 0.34375 2.28125l-0.015625 3.0q0 1.265625 0.109375 1.875q0.125 0.609375 0.46875 1.296875l-2.53125 0q-0.109375 -0.25 -0.25 -0.75q-0.0625 -0.234375 -0.09375 -0.3125q-0.65625 0.640625 -1.40625 0.96875q-0.734375 0.3125 -1.59375 0.3125q-1.484375 0 -2.34375 -0.8125q-0.859375 -0.8125 -0.859375 -2.046875q0 -0.828125 0.390625 -1.46875q0.390625 -0.640625 1.09375 -0.96875q0.703125 -0.34375 2.03125 -0.609375q1.796875 -0.328125 2.484375 -0.625l0 -0.25q0 -0.75 -0.359375 -1.0625q-0.359375 -0.3125 -1.375 -0.3125q-0.6875 0 -1.078125 0.28125q-0.375 0.265625 -0.609375 0.9375zm3.421875 2.078125q-0.484375 0.15625 -1.5625 0.390625q-1.0625 0.21875 -1.390625 0.4375q-0.5 0.359375 -0.5 0.90625q0 0.53125 0.40625 0.9375q0.40625 0.390625 1.015625 0.390625q0.703125 0 1.328125 -0.46875q0.46875 -0.34375 0.609375 -0.84375q0.09375 -0.328125 0.09375 -1.25l0 -0.5zm7.5007324 4.640625l-2.5625 0l0 -9.671875l2.375 0l0 1.375q0.609375 -0.984375 1.09375 -1.28125q0.484375 -0.3125 1.109375 -0.3125q0.875 0 1.6875 0.484375l-0.796875 2.234375q-0.640625 -0.421875 -1.203125 -0.421875q-0.53125 0 -0.90625 0.296875q-0.375 0.296875 -0.59375 1.078125q-0.203125 0.765625 -0.203125 3.234375l0 2.984375zm4.572754 0.640625l2.921875 0.359375q0.0625 0.5 0.328125 0.6875q0.375 0.28125 1.15625 0.28125q1.0 0 1.5 -0.296875q0.328125 -0.203125 0.515625 -0.65625q0.109375 -0.3125 0.109375 -1.171875l0 -1.40625q-1.140625 1.5625 -2.890625 1.5625q-1.953125 0 -3.09375 -1.65625q-0.890625 -1.296875 -0.890625 -3.234375q0 -2.4375 1.171875 -3.71875q1.171875 -1.28125 2.90625 -1.28125q1.796875 0 2.96875 1.578125l0 -1.359375l2.390625 0l0 8.671875q0 1.71875 -0.28125 2.5625q-0.28125 0.84375 -0.796875 1.328125q-0.5 0.484375 -1.359375 0.75q-0.84375 0.28125 -2.15625 0.28125q-2.453125 0 -3.484375 -0.84375q-1.03125 -0.84375 -1.03125 -2.125q0 -0.140625 0.015625 -0.3125zm2.28125 -5.671875q0 1.53125 0.59375 2.25q0.59375 0.71875 1.46875 0.71875q0.9375 0 1.578125 -0.734375q0.65625 -0.734375 0.65625 -2.171875q0 -1.515625 -0.625 -2.234375q-0.609375 -0.734375 -1.5625 -0.734375q-0.921875 0 -1.515625 0.71875q-0.59375 0.71875 -0.59375 2.1875zm8.755371 0.0625q0 -1.28125 0.625 -2.46875q0.625 -1.203125 1.78125 -1.828125q1.15625 -0.625 2.578125 -0.625q2.1875 0 3.59375 1.421875q1.40625 1.421875 1.40625 3.609375q0 2.1875 -1.421875 3.640625q-1.421875 1.4375 -3.5625 1.4375q-1.328125 0 -2.546875 -0.59375q-1.203125 -0.609375 -1.828125 -1.765625q-0.625 -1.171875 -0.625 -2.828125zm2.625 0.125q0 1.453125 0.671875 2.21875q0.6875 0.75 1.6875 0.75q1.0 0 1.671875 -0.75q0.6875 -0.765625 0.6875 -2.234375q0 -1.421875 -0.6875 -2.1875q-0.671875 -0.765625 -1.671875 -0.765625q-1.0 0 -1.6875 0.765625q-0.671875 0.765625 -0.671875 2.203125zm16.454285 -1.875l-2.328125 -0.421875q0.40625 -1.40625 1.359375 -2.078125q0.953125 -0.671875 2.84375 -0.671875q1.703125 0 2.546875 0.40625q0.84375 0.40625 1.171875 1.03125q0.34375 0.625 0.34375 2.28125l-0.015625 3.0q0 1.265625 0.109375 1.875q0.125 0.609375 0.46875 1.296875l-2.53125 0q-0.109375 -0.25 -0.25 -0.75q-0.0625 -0.234375 -0.09375 -0.3125q-0.65625 0.640625 -1.40625 0.96875q-0.734375 0.3125 -1.59375 0.3125q-1.484375 0 -2.34375 -0.8125q-0.859375 -0.8125 -0.859375 -2.046875q0 -0.828125 0.390625 -1.46875q0.390625 -0.640625 1.09375 -0.96875q0.703125 -0.34375 2.03125 -0.609375q1.796875 -0.328125 2.484375 -0.625l0 -0.25q0 -0.75 -0.359375 -1.0625q-0.359375 -0.3125 -1.375 -0.3125q-0.6875 0 -1.078125 0.28125q-0.375 0.265625 -0.609375 0.9375zm3.421875 2.078125q-0.484375 0.15625 -1.5625 0.390625q-1.0625 0.21875 -1.390625 0.4375q-0.5 0.359375 -0.5 0.90625q0 0.53125 0.40625 0.9375q0.40625 0.390625 1.015625 0.390625q0.703125 0 1.328125 -0.46875q0.46875 -0.34375 0.609375 -0.84375q0.09375 -0.328125 0.09375 -1.25l0 -0.5zm4.1413574 1.875l2.5625 -0.390625q0.171875 0.75 0.671875 1.140625q0.5 0.390625 1.40625 0.390625q0.984375 0 1.484375 -0.375q0.34375 -0.25 0.34375 -0.671875q0 -0.296875 -0.1875 -0.484375q-0.1875 -0.1875 -0.859375 -0.34375q-3.09375 -0.6875 -3.921875 -1.25q-1.140625 -0.78125 -1.140625 -2.171875q0 -1.265625 0.984375 -2.109375q1.0 -0.859375 3.078125 -0.859375q1.984375 0 2.953125 0.65625q0.96875 0.640625 1.328125 1.90625l-2.40625 0.4375q-0.15625 -0.5625 -0.59375 -0.859375q-0.421875 -0.296875 -1.234375 -0.296875q-1.0 0 -1.4375 0.28125q-0.296875 0.203125 -0.296875 0.515625q0 0.265625 0.25 0.46875q0.34375 0.25 2.390625 0.71875q2.046875 0.453125 2.859375 1.140625q0.796875 0.671875 0.796875 1.890625q0 1.34375 -1.109375 2.296875q-1.109375 0.953125 -3.28125 0.953125q-1.984375 0 -3.140625 -0.796875q-1.140625 -0.8125 -1.5 -2.1875zm11.203857 -6.90625l2.390625 0l0 1.421875q0.46875 -0.734375 1.25 -1.1875q0.796875 -0.453125 1.765625 -0.453125q1.6875 0 2.859375 1.328125q1.171875 1.3125 1.171875 3.671875q0 2.421875 -1.1875 3.765625q-1.1875 1.34375 -2.859375 1.34375q-0.8125 0 -1.46875 -0.3125q-0.640625 -0.328125 -1.359375 -1.09375l0 4.875l-2.5625 0l0 -13.359375zm2.53125 4.671875q0 1.625 0.640625 2.40625q0.65625 0.78125 1.578125 0.78125q0.90625 0 1.484375 -0.71875q0.59375 -0.71875 0.59375 -2.34375q0 -1.515625 -0.609375 -2.25q-0.609375 -0.75 -1.515625 -0.75q-0.9375 0 -1.5625 0.734375q-0.609375 0.71875 -0.609375 2.140625zm10.84906 -1.71875l-2.328125 -0.421875q0.40625 -1.40625 1.359375 -2.078125q0.953125 -0.671875 2.84375 -0.671875q1.703125 0 2.546875 0.40625q0.84375 0.40625 1.171875 1.03125q0.34375 0.625 0.34375 2.28125l-0.015625 3.0q0 1.265625 0.109375 1.875q0.125 0.609375 0.46875 1.296875l-2.53125 0q-0.109375 -0.25 -0.25 -0.75q-0.0625 -0.234375 -0.09375 -0.3125q-0.65625 0.640625 -1.40625 0.96875q-0.734375 0.3125 -1.59375 0.3125q-1.484375 0 -2.34375 -0.8125q-0.859375 -0.8125 -0.859375 -2.046875q0 -0.828125 0.390625 -1.46875q0.390625 -0.640625 1.09375 -0.96875q0.703125 -0.34375 2.03125 -0.609375q1.796875 -0.328125 2.484375 -0.625l0 -0.25q0 -0.75 -0.359375 -1.0625q-0.359375 -0.3125 -1.375 -0.3125q-0.6875 0 -1.078125 0.28125q-0.375 0.265625 -0.609375 0.9375zm3.421875 2.078125q-0.484375 0.15625 -1.5625 0.390625q-1.0625 0.21875 -1.390625 0.4375q-0.5 0.359375 -0.5 0.90625q0 0.53125 0.40625 0.9375q0.40625 0.390625 1.015625 0.390625q0.703125 0 1.328125 -0.46875q0.46875 -0.34375 0.609375 -0.84375q0.09375 -0.328125 0.09375 -1.25l0 -0.5z" fill-rule="nonzero"/><path fill="#000000" fill-opacity="0.0" d="m229.57611 0l64.25198 0l0 42.015747l-64.25198 0z" fill-rule="evenodd"/><path fill="#000000" d="m241.56049 19.716873q-0.984375 -0.421875 -1.4375 -1.15625q-0.453125 -0.734375 -0.453125 -1.609375q0 -1.484375 1.03125 -2.453125q1.046875 -0.984375 2.96875 -0.984375q1.90625 0 2.953125 0.984375q1.0625 0.96875 1.0625 2.453125q0 0.9375 -0.484375 1.65625q-0.484375 0.71875 -1.359375 1.109375q1.109375 0.4375 1.6875 1.296875q0.578125 0.859375 0.578125 1.984375q0 1.84375 -1.1875 3.0q-1.171875 1.15625 -3.125 1.15625q-1.828125 0 -3.03125 -0.953125q-1.4375 -1.125 -1.4375 -3.09375q0 -1.09375 0.53125 -2.0q0.546875 -0.90625 1.703125 -1.390625zm0.53125 -2.578125q0 0.765625 0.421875 1.203125q0.4375 0.421875 1.15625 0.421875q0.734375 0 1.171875 -0.4375q0.4375 -0.4375 0.4375 -1.203125q0 -0.71875 -0.4375 -1.140625q-0.421875 -0.4375 -1.140625 -0.4375q-0.734375 0 -1.171875 0.4375q-0.4375 0.4375 -0.4375 1.15625zm-0.234375 5.71875q0 1.0625 0.53125 1.65625q0.546875 0.578125 1.359375 0.578125q0.796875 0 1.3125 -0.5625q0.515625 -0.5625 0.515625 -1.640625q0 -0.9375 -0.53125 -1.5q-0.515625 -0.578125 -1.328125 -0.578125q-0.9375 0 -1.40625 0.65625q-0.453125 0.640625 -0.453125 1.390625zm22.059021 -2.75l-2.53125 0.453125q-0.125 -0.75 -0.578125 -1.125q-0.453125 -0.390625 -1.171875 -0.390625q-0.953125 0 -1.53125 0.65625q-0.5625 0.65625 -0.5625 2.203125q0 1.734375 0.578125 2.4375q0.578125 0.703125 1.546875 0.703125q0.734375 0 1.203125 -0.40625q0.46875 -0.421875 0.65625 -1.421875l2.515625 0.421875q-0.390625 1.734375 -1.515625 2.625q-1.109375 0.875 -2.96875 0.875q-2.125 0 -3.390625 -1.328125q-1.25 -1.34375 -1.25 -3.71875q0 -2.390625 1.265625 -3.71875q1.265625 -1.34375 3.421875 -1.34375q1.765625 0 2.796875 0.765625q1.046875 0.75 1.515625 2.3125zm1.7351074 -2.859375l2.359375 0l0 1.3125q1.265625 -1.53125 3.015625 -1.53125q0.9375 0 1.609375 0.390625q0.6875 0.375 1.125 1.140625q0.640625 -0.765625 1.375 -1.140625q0.75 -0.390625 1.578125 -0.390625q1.0625 0 1.796875 0.4375q0.75 0.421875 1.109375 1.265625q0.265625 0.625 0.265625 2.0l0 6.1875l-2.5625 0l0 -5.53125q0 -1.4375 -0.265625 -1.859375q-0.34375 -0.546875 -1.09375 -0.546875q-0.53125 0 -1.015625 0.328125q-0.46875 0.328125 -0.671875 0.96875q-0.203125 0.625 -0.203125 2.0l0 4.640625l-2.5625 0l0 -5.296875q0 -1.421875 -0.140625 -1.828125q-0.140625 -0.40625 -0.421875 -0.609375q-0.28125 -0.203125 -0.78125 -0.203125q-0.59375 0 -1.0625 0.328125q-0.46875 0.3125 -0.6875 0.921875q-0.203125 0.59375 -0.203125 1.984375l0 4.703125l-2.5625 0l0 -9.671875z" fill-rule="nonzero"/><path fill="#000000" fill-opacity="0.0" d="m411.90027 0.8136483l64.25195 0l0 42.015747l-64.25195 0z" fill-rule="evenodd"/><path fill="#000000" d="m430.33777 25.358646l0 2.375l-8.96875 0q0.140625 -1.34375 0.859375 -2.546875q0.734375 -1.21875 2.890625 -3.203125q1.734375 -1.625 2.125 -2.1875q0.53125 -0.796875 0.53125 -1.578125q0 -0.84375 -0.46875 -1.296875q-0.453125 -0.46875 -1.265625 -0.46875q-0.796875 0 -1.28125 0.484375q-0.46875 0.46875 -0.546875 1.59375l-2.546875 -0.25q0.234375 -2.109375 1.421875 -3.03125q1.203125 -0.921875 3.015625 -0.921875q1.96875 0 3.09375 1.0625q1.140625 1.0625 1.140625 2.65625q0 0.890625 -0.328125 1.71875q-0.3125 0.8125 -1.015625 1.703125q-0.46875 0.59375 -1.6875 1.703125q-1.203125 1.109375 -1.53125 1.484375q-0.3125 0.359375 -0.515625 0.703125l5.078125 0zm10.719452 -4.4375l-2.53125 0.453125q-0.125 -0.75 -0.578125 -1.125q-0.453125 -0.390625 -1.171875 -0.390625q-0.953125 0 -1.53125 0.65625q-0.5625 0.65625 -0.5625 2.203125q0 1.734375 0.578125 2.4375q0.578125 0.703125 1.546875 0.703125q0.734375 0 1.203125 -0.40625q0.46875 -0.421875 0.65625 -1.421875l2.515625 0.421875q-0.390625 1.734375 -1.515625 2.625q-1.109375 0.875 -2.96875 0.875q-2.125 0 -3.390625 -1.328125q-1.25 -1.34375 -1.25 -3.71875q0 -2.390625 1.265625 -3.71875q1.265625 -1.34375 3.421875 -1.34375q1.765625 0 2.796875 0.765625q1.046875 0.75 1.515625 2.3125zm1.7351074 -2.859375l2.359375 0l0 1.3125q1.265625 -1.53125 3.015625 -1.53125q0.9375 0 1.609375 0.390625q0.6875 0.375 1.125 1.140625q0.640625 -0.765625 1.375 -1.140625q0.75 -0.390625 1.578125 -0.390625q1.0625 0 1.796875 0.4375q0.75 0.421875 1.109375 1.265625q0.265625 0.625 0.265625 2.0l0 6.1875l-2.5625 0l0 -5.53125q0 -1.4375 -0.265625 -1.859375q-0.34375 -0.546875 -1.09375 -0.546875q-0.53125 0 -1.015625 0.328125q-0.46875 0.328125 -0.671875 0.96875q-0.203125 0.625 -0.203125 2.0l0 4.640625l-2.5625 0l0 -5.296875q0 -1.421875 -0.140625 -1.828125q-0.140625 -0.40625 -0.421875 -0.609375q-0.28125 -0.203125 -0.78125 -0.203125q-0.59375 0 -1.0625 0.328125q-0.46875 0.3125 -0.6875 0.921875q-0.203125 0.59375 -0.203125 1.984375l0 4.703125l-2.5625 0l0 -9.671875z" fill-rule="nonzero"/><path fill="#000000" fill-opacity="0.0" d="m40.034122 173.70341l0 -88.062996l42.015743 0l0 88.062996z" fill-rule="evenodd"/><path fill="#000000" d="m66.95412 157.35966l0 2.5625l-9.640621 0q1.3125 1.40625 1.9375 3.3125l-2.328125 0q-0.328125 -1.015625 -1.234375 -2.1875q-0.921875 -1.171875 -2.140625 -1.609375l0 -2.078125l13.406246 0zm-13.406246 -8.156967q0 -1.9375 1.375 -3.03125q1.640625 -1.296875 5.4375 -1.296875q3.7968712 0 5.453121 1.3125q1.375 1.078125 1.375 3.015625q0 1.953125 -1.5 3.15625q-1.5 1.1875 -5.343746 1.1875q-3.78125 0 -5.4375 -1.3125q-1.359375 -1.078125 -1.359375 -3.03125zm2.125 0q0 0.46875 0.296875 0.84375q0.296875 0.359375 1.0625 0.5625q0.984375 0.25 3.328125 0.25q2.359375 0 3.234375 -0.234375q0.8749962 -0.234375 1.1718712 -0.59375q0.296875 -0.359375 0.296875 -0.828125q0 -0.453125 -0.296875 -0.8125q-0.296875 -0.375 -1.0624962 -0.578125q-0.984375 -0.265625 -3.34375 -0.265625q-2.34375 0 -3.21875 0.25q-0.875 0.234375 -1.171875 0.59375q-0.296875 0.359375 -0.296875 0.8125zm11.515621 -5.219467l-13.812496 -3.3125l0 -1.921875l13.812496 3.34375l0 1.890625zm-3.7812462 -5.917679l-0.296875 -2.46875q0.9531212 -0.125 1.4531212 -0.640625q0.5 -0.53125 0.5 -1.265625q0 -0.78125 -0.59375 -1.328125q-0.6093712 -0.546875 -1.6406212 -0.546875q-0.953125 0 -1.515625 0.53125q-0.578125 0.515625 -0.578125 1.25q0 0.5 0.203125 1.1875l-2.09375 -0.28125q0.03125 -1.046875 -0.4375 -1.59375q-0.484375 -0.546875 -1.28125 -0.546875q-0.671875 0 -1.078125 0.40625q-0.40625 0.390625 -0.40625 1.0625q0 0.65625 0.46875 1.125q0.453125 0.453125 1.328125 0.5625l-0.40625 2.359375q-1.203125 -0.25 -1.921875 -0.734375q-0.734375 -0.5 -1.140625 -1.390625q-0.421875 -0.890625 -0.421875 -2.0q0 -1.875 1.203125 -3.015625q0.984375 -0.9375 2.21875 -0.9375q1.765625 0 2.8125 1.921875q0.234375 -1.15625 1.09375 -1.84375q0.859375 -0.6875 2.0625 -0.6875q1.7656212 0 3.0156212 1.296875q1.234375 1.28125 1.234375 3.1875q0 1.8125 -1.046875 3.015625q-1.046875 1.1875 -2.7343712 1.375zm-3.265625 -24.637146l0.453125 2.53125q-0.75 0.125 -1.125 0.578125q-0.390625 0.453125 -0.390625 1.171875q0 0.953125 0.65625 1.53125q0.65625 0.5625 2.203125 0.5625q1.734375 0 2.4374962 -0.578125q0.703125 -0.578125 0.703125 -1.546875q0 -0.734375 -0.40625 -1.203125q-0.421875 -0.46875 -1.4218712 -0.65625l0.421875 -2.515625q1.7343712 0.390625 2.6249962 1.515625q0.875 1.109375 0.875 2.96875q0 2.125 -1.328125 3.390625q-1.34375 1.25 -3.7187462 1.25q-2.390625 0 -3.71875 -1.265625q-1.34375 -1.265625 -1.34375 -3.421875q0 -1.765625 0.765625 -2.796875q0.75 -1.046875 2.3125 -1.515625zm-2.859375 -1.7350922l0 -2.359375l1.3125 0q-1.53125 -1.265625 -1.53125 -3.015625q0 -0.9375 0.390625 -1.609375q0.375 -0.6875 1.140625 -1.125q-0.765625 -0.640625 -1.140625 -1.375q-0.390625 -0.75 -0.390625 -1.578125q0 -1.0625 0.4375 -1.796875q0.421875 -0.75 1.265625 -1.109375q0.625 -0.265625 2.0 -0.265625l6.187496 0l0 2.5625l-5.531246 0q-1.4375 0 -1.859375 0.265625q-0.546875 0.34375 -0.546875 1.09375q0 0.53125 0.328125 1.015625q0.328125 0.46875 0.96875 0.671875q0.625 0.203125 2.0 0.203125l4.640621 0l0 2.5625l-5.296871 0q-1.421875 0 -1.828125 0.140625q-0.40625 0.140625 -0.609375 0.421875q-0.203125 0.28125 -0.203125 0.78125q0 0.59375 0.328125 1.0625q0.3125 0.46875 0.921875 0.6875q0.59375 0.203125 1.984375 0.203125l4.703121 0l0 2.5625l-9.671871 0z" fill-rule="nonzero"/><path fill="#000000" fill-opacity="0.0" d="m42.422573 293.27823l0 -88.063l42.01575 0l0 88.063z" fill-rule="evenodd"/><path fill="#000000" d="m69.34257 276.93448l0 2.5625l-9.640621 0q1.3125 1.40625 1.9375 3.3125l-2.328125 0q-0.328125 -1.015625 -1.234375 -2.1875q-0.921875 -1.171875 -2.140625 -1.609375l0 -2.078125l13.406246 0zm-13.406246 -8.156982q0 -1.9375 1.375 -3.03125q1.640625 -1.296875 5.4375 -1.296875q3.7968712 0 5.453121 1.3125q1.375 1.078125 1.375 3.015625q0 1.953125 -1.5 3.15625q-1.5 1.1875 -5.343746 1.1875q-3.78125 0 -5.4375 -1.3125q-1.359375 -1.078125 -1.359375 -3.03125zm2.125 0q0 0.46875 0.296875 0.84375q0.296875 0.359375 1.0625 0.5625q0.984375 0.25 3.328125 0.25q2.3593712 0 3.2343712 -0.234375q0.875 -0.234375 1.171875 -0.59375q0.296875 -0.359375 0.296875 -0.828125q0 -0.453125 -0.296875 -0.8125q-0.296875 -0.375 -1.0625 -0.578125q-0.984375 -0.265625 -3.3437462 -0.265625q-2.34375 0 -3.21875 0.25q-0.875 0.234375 -1.171875 0.59375q-0.296875 0.359375 -0.296875 0.8125zm11.515621 -5.219452l-13.812496 -3.3125l0 -1.921875l13.812496 3.34375l0 1.890625zm-3.78125 -5.917694l-0.296875 -2.46875q0.953125 -0.125 1.453125 -0.640625q0.5 -0.53125 0.5 -1.265625q0 -0.78125 -0.59375 -1.328125q-0.609375 -0.546875 -1.640625 -0.546875q-0.953125 0 -1.5156212 0.53125q-0.578125 0.515625 -0.578125 1.25q0 0.5 0.203125 1.1875l-2.09375 -0.28125q0.03125 -1.046875 -0.4375 -1.59375q-0.484375 -0.546875 -1.28125 -0.546875q-0.671875 0 -1.078125 0.40625q-0.40625 0.390625 -0.40625 1.0625q0 0.65625 0.46875 1.125q0.453125 0.453125 1.328125 0.5625l-0.40625 2.359375q-1.203125 -0.25 -1.921875 -0.734375q-0.734375 -0.5 -1.140625 -1.390625q-0.421875 -0.890625 -0.421875 -2.0q0 -1.875 1.203125 -3.015625q0.984375 -0.9375 2.21875 -0.9375q1.765625 0 2.8125 1.921875q0.234375 -1.15625 1.09375 -1.84375q0.8593712 -0.6875 2.0624962 -0.6875q1.765625 0 3.015625 1.296875q1.234375 1.28125 1.234375 3.1875q0 1.8125 -1.046875 3.015625q-1.046875 1.1875 -2.734375 1.375zm-3.2656212 -24.637146l0.453125 2.53125q-0.75 0.125 -1.125 0.578125q-0.390625 0.453125 -0.390625 1.171875q0 0.953125 0.65625 1.53125q0.65625 0.5625 2.2031212 0.5625q1.734375 0 2.4375 -0.578125q0.703125 -0.578125 0.703125 -1.546875q0 -0.734375 -0.40625 -1.203125q-0.421875 -0.46875 -1.421875 -0.65625l0.421875 -2.515625q1.734375 0.390625 2.625 1.515625q0.875 1.109375 0.875 2.96875q0 2.125 -1.328125 3.390625q-1.34375 1.25 -3.71875 1.25q-2.3906212 0 -3.7187462 -1.265625q-1.34375 -1.265625 -1.34375 -3.421875q0 -1.765625 0.765625 -2.796875q0.75 -1.046875 2.3125 -1.515625zm-2.859375 -1.7350922l0 -2.359375l1.3125 0q-1.53125 -1.265625 -1.53125 -3.015625q0 -0.9375 0.390625 -1.609375q0.375 -0.6875 1.140625 -1.125q-0.765625 -0.640625 -1.140625 -1.375q-0.390625 -0.75 -0.390625 -1.578125q0 -1.0625 0.4375 -1.796875q0.421875 -0.75 1.265625 -1.109375q0.625 -0.265625 2.0 -0.265625l6.187496 0l0 2.5625l-5.531246 0q-1.4375 0 -1.859375 0.265625q-0.546875 0.34375 -0.546875 1.09375q0 0.53125 0.328125 1.015625q0.328125 0.46875 0.96875 0.671875q0.625 0.203125 1.9999962 0.203125l4.640625 0l0 2.5625l-5.296875 0q-1.4218712 0 -1.8281212 0.140625q-0.40625 0.140625 -0.609375 0.421875q-0.203125 0.28125 -0.203125 0.78125q0 0.59375 0.328125 1.0625q0.3125 0.46875 0.921875 0.6875q0.59375 0.203125 1.9843712 0.203125l4.703125 0l0 2.5625l-9.671871 0z" fill-rule="nonzero"/><path fill="#000000" fill-opacity="0.0" d="m40.034122 412.85303l0 -88.06299l42.015743 0l0 88.06299z" fill-rule="evenodd"/><path fill="#000000" d="m66.95412 396.50928l0 2.5625l-9.640621 0q1.3125 1.40625 1.9375 3.3125l-2.328125 0q-0.328125 -1.015625 -1.234375 -2.1875q-0.921875 -1.171875 -2.140625 -1.609375l0 -2.078125l13.406246 0zm-13.406246 -8.156982q0 -1.9375 1.375 -3.03125q1.640625 -1.296875 5.4375 -1.296875q3.7968712 0 5.453121 1.3125q1.375 1.078125 1.375 3.015625q0 1.953125 -1.5 3.15625q-1.5 1.1875 -5.343746 1.1875q-3.78125 0 -5.4375 -1.3125q-1.359375 -1.078125 -1.359375 -3.03125zm2.125 0q0 0.46875 0.296875 0.84375q0.296875 0.359375 1.0625 0.5625q0.984375 0.25 3.328125 0.25q2.359375 0 3.234375 -0.234375q0.8749962 -0.234375 1.1718712 -0.59375q0.296875 -0.359375 0.296875 -0.828125q0 -0.453125 -0.296875 -0.8125q-0.296875 -0.375 -1.0624962 -0.578125q-0.984375 -0.265625 -3.34375 -0.265625q-2.34375 0 -3.21875 0.25q-0.875 0.234375 -1.171875 0.59375q-0.296875 0.359375 -0.296875 0.8125zm11.515621 -5.219452l-13.812496 -3.3125l0 -1.921875l13.812496 3.34375l0 1.890625zm-3.7812462 -5.917694l-0.296875 -2.46875q0.9531212 -0.125 1.4531212 -0.640625q0.5 -0.53125 0.5 -1.265625q0 -0.78125 -0.59375 -1.328125q-0.6093712 -0.546875 -1.6406212 -0.546875q-0.953125 0 -1.515625 0.53125q-0.578125 0.515625 -0.578125 1.25q0 0.5 0.203125 1.1875l-2.09375 -0.28125q0.03125 -1.046875 -0.4375 -1.59375q-0.484375 -0.546875 -1.28125 -0.546875q-0.671875 0 -1.078125 0.40625q-0.40625 0.390625 -0.40625 1.0625q0 0.65625 0.46875 1.125q0.453125 0.453125 1.328125 0.5625l-0.40625 2.359375q-1.203125 -0.25 -1.921875 -0.734375q-0.734375 -0.5 -1.140625 -1.390625q-0.421875 -0.890625 -0.421875 -2.0q0 -1.875 1.203125 -3.015625q0.984375 -0.9375 2.21875 -0.9375q1.765625 0 2.8125 1.921875q0.234375 -1.15625 1.09375 -1.84375q0.859375 -0.6875 2.0625 -0.6875q1.7656212 0 3.0156212 1.296875q1.234375 1.28125 1.234375 3.1875q0 1.8125 -1.046875 3.015625q-1.046875 1.1875 -2.7343712 1.375zm-3.265625 -24.637146l0.453125 2.53125q-0.75 0.125 -1.125 0.578125q-0.390625 0.453125 -0.390625 1.171875q0 0.953125 0.65625 1.53125q0.65625 0.5625 2.203125 0.5625q1.734375 0 2.4374962 -0.578125q0.703125 -0.578125 0.703125 -1.546875q0 -0.734375 -0.40625 -1.203125q-0.421875 -0.46875 -1.4218712 -0.65625l0.421875 -2.515625q1.7343712 0.390625 2.6249962 1.515625q0.875 1.109375 0.875 2.96875q0 2.125 -1.328125 3.390625q-1.34375 1.25 -3.7187462 1.25q-2.390625 0 -3.71875 -1.265625q-1.34375 -1.265625 -1.34375 -3.421875q0 -1.765625 0.765625 -2.796875q0.75 -1.046875 2.3125 -1.515625zm-2.859375 -1.7350769l0 -2.359375l1.3125 0q-1.53125 -1.265625 -1.53125 -3.015625q0 -0.9375 0.390625 -1.609375q0.375 -0.6875 1.140625 -1.125q-0.765625 -0.640625 -1.140625 -1.375q-0.390625 -0.75 -0.390625 -1.578125q0 -1.0625 0.4375 -1.796875q0.421875 -0.75 1.265625 -1.109375q0.625 -0.265625 2.0 -0.265625l6.187496 0l0 2.5625l-5.531246 0q-1.4375 0 -1.859375 0.265625q-0.546875 0.34375 -0.546875 1.09375q0 0.53125 0.328125 1.015625q0.328125 0.46875 0.96875 0.671875q0.625 0.203125 2.0 0.203125l4.640621 0l0 2.5625l-5.296871 0q-1.421875 0 -1.828125 0.140625q-0.40625 0.140625 -0.609375 0.421875q-0.203125 0.28125 -0.203125 0.78125q0 0.59375 0.328125 1.0625q0.3125 0.46875 0.921875 0.6875q0.59375 0.203125 1.984375 0.203125l4.703121 0l0 2.5625l-9.671871 0z" fill-rule="nonzero"/><path fill="#000000" fill-opacity="0.0" d="m594.4934 35.097115l97.543335 0l0 42.015747l-97.543335 0z" fill-rule="evenodd"/><path fill="#000000" d="m604.8528 62.017113l0 -13.359375l9.90625 0l0 2.265625l-7.21875 0l0 2.953125l6.71875 0l0 2.25l-6.71875 0l0 3.640625l7.46875 0l0 2.25l-10.15625 0zm12.4279785 0l0 -13.359375l2.5625 0l0 13.359375l-2.5625 0zm5.1832886 -10.984375l0 -2.375l2.5625 0l0 2.375l-2.5625 0zm0 10.984375l0 -9.671875l2.5625 0l0 9.671875l-2.5625 0zm4.9801636 -9.671875l2.359375 0l0 1.3125q1.265625 -1.53125 3.015625 -1.53125q0.9375 0 1.609375 0.390625q0.6875 0.375 1.125 1.140625q0.640625 -0.765625 1.375 -1.140625q0.75 -0.390625 1.578125 -0.390625q1.0625 0 1.796875 0.4375q0.75 0.421875 1.109375 1.265625q0.265625 0.625 0.265625 2.0l0 6.1875l-2.5625 0l0 -5.53125q0 -1.4375 -0.265625 -1.859375q-0.34375 -0.546875 -1.09375 -0.546875q-0.53125 0 -1.015625 0.328125q-0.46875 0.328125 -0.671875 0.96875q-0.203125 0.625 -0.203125 2.0l0 4.640625l-2.5625 0l0 -5.296875q0 -1.421875 -0.140625 -1.828125q-0.140625 -0.40625 -0.421875 -0.609375q-0.28125 -0.203125 -0.78125 -0.203125q-0.59375 0 -1.0625 0.328125q-0.46875 0.3125 -0.6875 0.921875q-0.203125 0.59375 -0.203125 1.984375l0 4.703125l-2.5625 0l0 -9.671875zm16.791565 -1.3125l0 -2.375l2.5625 0l0 2.375l-2.5625 0zm0 10.984375l0 -9.671875l2.5625 0l0 9.671875l-2.5625 0zm13.980164 0l-2.5625 0l0 -4.9375q0 -1.5625 -0.171875 -2.015625q-0.15625 -0.46875 -0.53125 -0.71875q-0.359375 -0.265625 -0.875 -0.265625q-0.671875 0 -1.203125 0.375q-0.53125 0.359375 -0.734375 0.96875q-0.1875 0.59375 -0.1875 2.21875l0 4.375l-2.546875 0l0 -9.671875l2.375 0l0 1.421875q1.265625 -1.640625 3.1875 -1.640625q0.84375 0 1.546875 0.3125q0.703125 0.296875 1.0625 0.78125q0.359375 0.46875 0.5 1.078125q0.140625 0.59375 0.140625 1.703125l0 6.015625zm4.505371 -6.71875l-2.328125 -0.421875q0.40625 -1.40625 1.359375 -2.078125q0.953125 -0.671875 2.84375 -0.671875q1.703125 0 2.546875 0.40625q0.84375 0.40625 1.171875 1.03125q0.34375 0.625 0.34375 2.28125l-0.015625 3.0q0 1.265625 0.109375 1.875q0.125 0.609375 0.46875 1.296875l-2.53125 0q-0.109375 -0.25 -0.25 -0.75q-0.0625 -0.234375 -0.09375 -0.3125q-0.65625 0.640625 -1.40625 0.96875q-0.734375 0.3125 -1.59375 0.3125q-1.484375 0 -2.34375 -0.8125q-0.859375 -0.8125 -0.859375 -2.046875q0 -0.828125 0.390625 -1.46875q0.390625 -0.640625 1.09375 -0.96875q0.703125 -0.34375 2.03125 -0.609375q1.796875 -0.328125 2.484375 -0.625l0 -0.25q0 -0.75 -0.359375 -1.0625q-0.359375 -0.3125 -1.375 -0.3125q-0.6875 0 -1.078125 0.28125q-0.375 0.265625 -0.609375 0.9375zm3.421875 2.078125q-0.484375 0.15625 -1.5625 0.390625q-1.0625 0.21875 -1.390625 0.4375q-0.5 0.359375 -0.5 0.90625q0 0.53125 0.40625 0.9375q0.40625 0.390625 1.015625 0.390625q0.703125 0 1.328125 -0.46875q0.46875 -0.34375 0.609375 -0.84375q0.09375 -0.328125 0.09375 -1.25l0 -0.5zm7.5006714 4.640625l-2.5625 0l0 -9.671875l2.375 0l0 1.375q0.609375 -0.984375 1.09375 -1.28125q0.484375 -0.3125 1.109375 -0.3125q0.875 0 1.6875 0.484375l-0.796875 2.234375q-0.640625 -0.421875 -1.203125 -0.421875q-0.53125 0 -0.90625 0.296875q-0.375 0.296875 -0.59375 1.078125q-0.203125 0.765625 -0.203125 3.234375l0 2.984375z" fill-rule="nonzero"/><path fill="#000000" fill-opacity="0.0" d="m687.79266 54.53806l16.218506 0l0 0c8.957214 0 16.218506 7.2612686 16.218506 16.218502l0 12.781494l4.63385 0l-9.2677 9.267715l-9.267761 -9.267715l4.63385 0l0 -12.781494l0 0c0 -3.8388138 -3.1119385 -6.9507866 -6.9507446 -6.9507866l-16.218506 0z" fill-rule="evenodd"/><path stroke="#000000" stroke-width="2.0" stroke-linejoin="round" stroke-linecap="butt" d="m687.79266 54.53806l16.218506 0l0 0c8.957214 0 16.218506 7.2612686 16.218506 16.218502l0 12.781494l4.63385 0l-9.2677 9.267715l-9.267761 -9.267715l4.63385 0l0 -12.781494l0 0c0 -3.8388138 -3.1119385 -6.9507866 -6.9507446 -6.9507866l-16.218506 0z" fill-rule="evenodd"/></g></svg>